<?xml version="1.0" encoding="utf-8"?>
<!-- Generator: Adobe Illustrator 19.2.0, SVG Export Plug-In . SVG Version: 6.00 Build 0)  -->
<svg version="1.1" id="Layer_1" xmlns="http://www.w3.org/2000/svg" xmlns:xlink="http://www.w3.org/1999/xlink" x="0px" y="0px"
	 viewBox="0 0 64 64" enable-background="new 0 0 64 64" xml:space="preserve">
<g>
	<path fill="#898989" d="M47.6,21.4H37.4c0,0-1.3-0.1-2.3-1.1L32.9,18c0,0-0.8-1.1-2.3-1.1h-9.1c-1.4,0-2.3,1.1-2.3,1.1L17,20.3
		c-1,1-2.3,1.1-2.3,1.1h-2.3c0-1.3-1-2.3-2.3-2.3H7.9c-1.3,0-2.3,1-2.3,2.3H4.5C2,21.4,0,23.5,0,26v24.9c0,2.5,2,4.5,4.5,4.5h43.1
		c2.5,0,4.5-2,4.5-4.5V26C52.1,23.5,50.1,21.4,47.6,21.4z M26.1,48.6c-5.6,0-10.2-4.6-10.2-10.2c0-5.6,4.6-10.2,10.2-10.2
		c5.6,0,10.2,4.6,10.2,10.2C36.3,44.1,31.7,48.6,26.1,48.6z"/>
	<path fill="#898989" d="M62.9,13.1h-3.4V9.6c0-0.6-0.5-1.1-1.1-1.1c-0.6,0-1.1,0.5-1.1,1.1v3.4h-3.4c-0.6,0-1.1,0.5-1.1,1.1
		c0,0.6,0.5,1.1,1.1,1.1h3.4v3.4c0,0.6,0.5,1.1,1.1,1.1c0.6,0,1.1-0.5,1.1-1.1v-3.4h3.4c0.6,0,1.1-0.5,1.1-1.1
		C64,13.6,63.5,13.1,62.9,13.1z"/>
</g>
</svg>
