<?xml version="1.0" encoding="utf-8"?>
<!-- Generator: Adobe Illustrator 19.2.0, SVG Export Plug-In . SVG Version: 6.00 Build 0)  -->
<svg version="1.1" id="Layer_1" xmlns="http://www.w3.org/2000/svg" xmlns:xlink="http://www.w3.org/1999/xlink" x="0px" y="0px"
	 viewBox="0 0 64 64" enable-background="new 0 0 64 64" xml:space="preserve">
<g id="Group_1323" transform="translate(1041.021 -334.346)">
	<g id="Group_1323_1_" transform="translate(1041.021 -334.346)">
		<path id="Rectangle_621_1_" fill="#5D5D5D" d="M-2078.8,697.5h57.6c1.8,0,3.2,1.4,3.2,3.2l0,0c0,1.8-1.4,3.2-3.2,3.2h-57.6
			c-1.8,0-3.2-1.4-3.2-3.2l0,0C-2082,698.9-2080.6,697.5-2078.8,697.5z"/>
		<g id="Group_1322_1_" transform="translate(-1041.021 334.345)">
			<path id="Rectangle_622_1_" fill="#5D5D5D" d="M-1037.8,345.1h57.6c1.8,0,3.2,1.4,3.2,3.2l0,0c0,1.8-1.4,3.2-3.2,3.2h-57.6
				c-1.8,0-3.2-1.4-3.2-3.2l0,0C-1041,346.5-1039.6,345.1-1037.8,345.1z"/>
			<path id="Rectangle_623_1_" fill="#5D5D5D" d="M-1037.8,381.2h57.6c1.8,0,3.2,1.4,3.2,3.2l0,0c0,1.8-1.4,3.2-3.2,3.2h-57.6
				c-1.8,0-3.2-1.4-3.2-3.2l0,0C-1041,382.7-1039.6,381.2-1037.8,381.2z"/>
		</g>
	</g>
</g>
</svg>
