<?xml version="1.0" encoding="utf-8"?>
<!-- Generator: Adobe Illustrator 19.2.0, SVG Export Plug-In . SVG Version: 6.00 Build 0)  -->
<svg version="1.1" id="Layer_1" xmlns="http://www.w3.org/2000/svg" xmlns:xlink="http://www.w3.org/1999/xlink" x="0px" y="0px"
	 viewBox="0 0 64 64" style="enable-background:new 0 0 64 64;" xml:space="preserve">
<style type="text/css">
	.st0{fill:#5D5D5D;}
</style>
<g id="Sign_Out" transform="translate(-1286.977 -855.487)">
	<g id="Group_1181">
		<path id="Path_239" class="st0" d="M1317,915.5h-26v-56h26c1.1,0,2-1,1.9-2.1c0-1-0.9-1.9-1.9-1.9h-28c-1.1,0-2,0.9-2,2v60
			c0,1.1,0.9,2,2,2l0,0h28c1.1,0,2-0.9,2-2C1319,916.4,1318.1,915.5,1317,915.5L1317,915.5z"/>
		<path id="Path_240" class="st0" d="M1350.4,886.1l-13.8-14c-0.8-0.8-2-0.8-2.8,0c0,0,0,0,0,0c-0.8,0.8-0.8,2.1,0,2.9l10.4,10.5
			H1303c-1.1,0-2,0.9-2,2s0.9,2,2,2h41.2l-10.4,10.5c-0.8,0.8-0.8,2.1,0,2.9c0.8,0.8,2,0.8,2.8,0c0,0,0,0,0,0l13.8-14
			C1351.2,888.1,1351.2,886.9,1350.4,886.1z"/>
	</g>
</g>
</svg>
